<svg xmlns="http://www.w3.org/2000/svg" width="32" height="32" viewBox="0 0 32 32" fill="none" aria-hidden="true">
  <rect width="32" height="32" fill="#014550" />
  <path
    d="M26 9.25V17.3913L22.5802 22.4729C21.9956 22.6557 21.351 22.75 20.6353 22.75C18.9582 22.75 17.6416 22.243 16.702 21.2349C15.7569 20.2268 15.2871 18.812 15.2871 17.0021V12.6633L17.5815 9.25H17.7837V16.9786C17.7837 18.0633 18.0241 18.8945 18.5103 19.4545C18.9965 20.0205 19.7012 20.3035 20.6299 20.3035C22.5419 20.3035 23.4979 19.1952 23.4979 16.9786V9.25H26ZM8.70964 22.4258L15.2816 12.6633H12.7413L10.8402 15.6935L8.98279 12.6633H6.25129L9.4089 17.4266L6 22.4258H8.70964ZM13.2931 19.0125L11.9273 21.0404L12.7687 22.4258H15.5602L13.2931 19.0125Z"
    fill="#E1FC61"
  />
</svg>
